<svg width="283" height="51" viewBox="0 0 283 51" fill="none" xmlns="http://www.w3.org/2000/svg">
<path d="M269.37 41.0951H34.0989C26.5727 41.0951 20.469 34.9936 20.469 27.4652C20.469 19.939 26.5705 13.8353 34.0989 13.8353H269.37C276.896 13.8353 283 19.9368 283 27.4652C283 34.9936 276.896 41.0951 269.37 41.0951Z" fill="white"/>
<path d="M266.856 38.9006H38.9428C32.6275 38.9006 27.5095 33.7826 27.5095 27.4673C27.5095 21.152 32.6275 16.0341 38.9428 16.0341H266.859C273.174 16.0341 278.292 21.152 278.292 27.4673C278.29 33.7804 273.172 38.9006 266.856 38.9006Z" fill="white"/>
<path d="M266.856 39.6772H38.9424C32.2085 39.6772 26.7327 34.1992 26.7327 27.4675C26.7327 20.7358 32.2107 15.2578 38.9424 15.2578H266.858C273.592 15.2578 279.068 20.7358 279.068 27.4675C279.068 34.1992 273.59 39.6772 266.856 39.6772ZM38.9424 16.8107C33.066 16.8107 28.2879 21.5911 28.2879 27.4652C28.2879 33.3417 33.0682 38.1198 38.9424 38.1198H266.858C272.735 38.1198 277.513 33.3394 277.513 27.4652C277.513 21.5888 272.732 16.8107 266.858 16.8107H38.9424Z" fill="white"/>
<path d="M226.889 38.1401H38.2764C32.8073 38.1401 28.3735 33.7063 28.3735 28.2373V26.6956C28.3735 21.2265 32.8073 16.7928 38.2764 16.7928H226.889C232.784 16.7928 237.562 21.5709 237.562 27.4653C237.562 33.362 232.784 38.1401 226.889 38.1401Z" fill="#00A0D7"/>
<path d="M28.4881 1.44323L34.567 13.761C34.9451 14.5262 35.6744 15.0551 36.5161 15.1789L50.11 17.155C52.2346 17.4633 53.0831 20.074 51.5459 21.573L41.7083 31.1607C41.0984 31.7549 40.8193 32.6124 40.9634 33.4541L43.286 46.994C43.6484 49.1096 41.4293 50.7233 39.5275 49.724L27.3672 43.3322C26.6133 42.9361 25.7108 42.9361 24.9568 43.3322L12.7966 49.724C10.897 50.7233 8.67564 49.1096 9.038 46.994L11.3607 33.4541C11.5047 32.6146 11.2256 31.7571 10.6157 31.1607L0.784887 21.573C-0.752302 20.074 0.0961903 17.4633 2.2208 17.155L15.8147 15.1789C16.6587 15.0574 17.3879 14.5262 17.7637 13.761L23.8427 1.44323C24.7948 -0.481075 27.5383 -0.481075 28.4881 1.44323Z" fill="white"/>
<path d="M27.957 6.84692L32.6429 16.3424C32.9332 16.9321 33.4959 17.3394 34.1463 17.434L44.6253 18.9576C46.2638 19.1962 46.9165 21.2083 45.7326 22.3629L38.1502 29.754C37.6798 30.2131 37.466 30.8725 37.5763 31.5207L39.3655 41.957C39.6446 43.5887 37.9341 44.831 36.469 44.0613L27.0973 39.1347C26.5166 38.8286 25.8212 38.8286 25.2383 39.1347L15.8666 44.0613C14.4014 44.831 12.6909 43.5887 12.97 41.957L14.7593 31.5207C14.8695 30.8725 14.6557 30.2131 14.1853 29.754L6.60068 22.3606C5.41684 21.206 6.06953 19.194 7.708 18.9554L18.187 17.4317C18.8374 17.3372 19.4001 16.9298 19.6904 16.3401L24.3763 6.84467C25.1077 5.3615 27.2256 5.3615 27.957 6.84692Z" fill="#00A0D7"/>
<path d="M37.3983 44.912C36.982 44.912 36.5656 44.8107 36.1785 44.6082L26.8068 39.6815C26.4062 39.47 25.9268 39.47 25.5262 39.6815L16.1523 44.6082C15.2655 45.0741 14.21 44.9975 13.3975 44.4101C12.5872 43.8204 12.1866 42.8414 12.3577 41.8511L14.1469 31.4149C14.2235 30.967 14.0749 30.5124 13.7508 30.1951L6.16841 22.8039C5.45046 22.104 5.19613 21.0777 5.50672 20.1234C5.81731 19.1692 6.62529 18.4872 7.61783 18.3432L18.0968 16.8195C18.5447 16.7542 18.9341 16.4729 19.1344 16.0655L23.8202 6.57005C24.2636 5.66979 25.1616 5.11163 26.1654 5.11163C27.1692 5.11163 28.0672 5.66979 28.5105 6.57005L33.1964 16.0655C33.3967 16.4729 33.7838 16.7542 34.2339 16.8195L44.7129 18.3432C45.7055 18.4872 46.5134 19.1692 46.824 20.1234C47.1346 21.0777 46.8803 22.104 46.1623 22.8039L38.5799 30.1951C38.2558 30.5124 38.1073 30.967 38.1838 31.4149L39.9731 41.8511C40.1419 42.8392 39.7435 43.8204 38.9333 44.4101C38.4764 44.7432 37.9385 44.912 37.3983 44.912ZM26.1654 38.2839C26.584 38.2839 27.0004 38.3851 27.383 38.5832L36.7547 43.5099C37.2295 43.7597 37.7719 43.7214 38.2041 43.4041C38.6384 43.089 38.8432 42.5848 38.751 42.0582L36.9617 31.622C36.8154 30.7735 37.0968 29.907 37.7134 29.306L45.2958 21.9149C45.6807 21.5413 45.809 21.0124 45.6447 20.5038C45.4781 19.9929 45.064 19.644 44.5329 19.5653L34.0539 18.0416C33.2009 17.9178 32.4649 17.3821 32.0846 16.6102L27.3987 7.11471C27.1624 6.63307 26.6988 6.34724 26.1631 6.34724C25.6275 6.34724 25.1661 6.63532 24.9275 7.11471L20.2462 16.6147C19.8658 17.3866 19.1299 17.9223 18.2769 18.0461L7.79788 19.5698C7.26673 19.6463 6.85261 19.9974 6.68606 20.5083C6.51951 21.0169 6.65005 21.5458 7.03491 21.9194L14.6173 29.3105C15.234 29.9115 15.5153 30.7757 15.369 31.6265L13.5798 42.0627C13.4898 42.5916 13.6946 43.0957 14.1267 43.4086C14.5611 43.7237 15.1035 43.7642 15.5761 43.5144L24.9478 38.5877C25.3304 38.3851 25.749 38.2839 26.1654 38.2839Z" fill="white"/>
</svg>
